<?xml version="1.0" encoding="utf-8"?>
<!-- Generator: Adobe Illustrator 22.0.0, SVG Export Plug-In . SVG Version: 6.00 Build 0)  -->
<svg version="1.1" id="图层_1" xmlns="http://www.w3.org/2000/svg" xmlns:xlink="http://www.w3.org/1999/xlink" x="0px" y="0px"
	 viewBox="0 0 850.4 566.9" style="enable-background:new 0 0 850.4 566.9;" xml:space="preserve">
<style type="text/css">
	.st0{fill:#FFFFFF;}
</style>
<g>
	<path class="st0" d="M742.8,78.3c0.1-1-0.1-4.1,2.2-5.8c0.4-0.3,0.7-0.8,1-1.1c-0.2-0.2-0.3-0.3-0.5-0.5c-0.5,0.3-1,0.5-1.5,0.8
		c-0.4,0.2-0.8,0.7-1.1,0.7c-4.3-0.3-6.8,2.7-9.7,5.1c-0.8,0.7-1.9,1.1-2.8,1.7c-1,0.6-2,1.1-2.9,1.8c-0.7,0.6-1.4,1.9-2,1.9
		c-1.5-0.2-1.2,0.7-1.2,1.5c0,0.7,0,1.4,0,1.6c-1.6,0.8-2.8,1.5-4.1,1.9c-1.7,0.5-3.6,1.2-5.4,1c-1.6-0.2-2.8,0.1-3.9,1
		c-1.1,0.9-1.6,0.4-2.3-0.3c-0.9-1-1.9-1.9-2.6-2.9c-0.4-0.6-0.8-1.6-0.6-2.2c0.7-2.2,0-4-2.1-4.9c-0.2-0.1-0.3-0.3-0.4-0.5
		c-1-1-0.8-2.1-0.3-3.2c0.2-0.4,0.2-0.9,0-1.2c-0.1-0.2-0.8-0.2-1.2-0.1c-2.7,0.6-5.2,0.5-7.2-1.9c-1.3-1.6-3.3-2.6-4.9-3.9
		c-1.9,2-4.8,2.3-6.5,0.3c-1.5-1.8-2.6-1.1-3.9-0.2c-1.9,1.3-4.1,0.6-5.9,0.2c-2.2-0.4-3.7-4.1-3.2-6.3c0.3-1.1-0.3-1.4-0.9-2
		c-0.9-0.8-1.9-2-2-3c-0.1-2.7-1.7-4.4-3.4-6c-1.2-1.1-2.4-2.1-2-4c0.2-1-0.2-1.5-1.3-0.9c0.1-0.5,0.3-1.1,0.1-1.4
		c-1.1-1.6-2.3-3.1-3.4-4.7c-0.7-1-2.2-2.3-2-3.1c0.5-2-0.4-2.4-1.8-2.7c0.7-1.7-0.7-3.6-3.9-5.4c0.7-1,1.3-2-0.7-2.3
		c-0.2,0-0.4-0.2-0.6-0.3c-1.6-1.5-3.3-2.7-5.5-3.5c-2.4-0.9-3.1-0.9-4.8,0.6c-1-0.2-1.9-0.3-2.8-0.5c-0.5-0.1-1.1-0.2-1.3-0.5
		c-0.8-1.2-1.8-1.5-3.1-1.4c-0.5,0-1-0.2-1.4-0.5c-2-1.6-4.3-0.9-6.4-0.6c-2,0.3-3.9,1.3-5.8,1.9c-1,0.3-2.2,0.1-3.3,0.4
		c-2.2,0.8-4.3,1.9-6.5,2.7c-1.3,0.5-2.6,0.8-4,1.1c-1.3,0.3-2.2,0.7-3,1.9c-1.4,2.2-2.4,4.7-4.7,6.4c-0.5,0.3,0,1.9,0.1,2.9
		c0.7-0.1,1.7,0.1,2.1-0.2c1-1,2-0.8,2.7,0c0.5,0.5,0.5,1.5,0.7,2.2c0.1,0.5,0.1,1.1,0.4,1.4c1.2,1.3,0.9,3.9-0.4,5.2
		c-1.5,1.4-3.4,2.8-4,4.6c-1.4,3.8-2.1,7.9-4.5,11.3c-0.1,0.1-0.1,0.3-0.2,0.5c-0.8,2.4-1.7,4.8-2.5,7.3c0.5,0.3,1.2,0.6,1.7,0.9
		c0.9,1.6,0,2.7-1.2,3.6c-0.8,0.7-1.9,1.1-2.9,1.5c-0.9,0.4-2,0.6-2.8,1.2c-1.1,0.9-1.9,2.3-3,3.1c-1.8,1.4-3.7,2.8-6.2,1.6
		c-0.3-0.1-0.5-0.3-0.8-0.3c-2.2,0.1-3.9-0.8-5.6-2.1c-1-0.7-1.6-0.6-2.1,0.7c-1.3,3.4-2.8,6.6-4,10c-0.8,2.2-1.1,4.5-2.1,6.6
		c-0.7,1.5-1.5,2.8-1.1,4.4c0.3,1.4-0.2,2.2-1.4,2.7c-0.9,0.4-1,0.8-0.9,1.9c0.2,2.3,1.8,3.2,3.2,4.5c1.1,1,1.7,0.6,2.6-0.3
		c0.6-0.7,1.5-1.2,2.3-1.5c0.9-0.3,2-0.4,3-0.4c1.2,0,2.5-0.2,3.5,0.2c1.5,0.6,2.7,1.7,4.1,2.6c0.9-1.3,1.9-2.6,2.6-3.9
		c0.8-1.4,2-2,3.5-2.1c0.9-0.1,1.8-0.1,2.7,0c1.5,0.1,2.8,0.5,3.7,2c0.4,0.7,1.5,1.1,2.4,1.6c0.7,0.4,1.6,0.6,2.1,1.1
		c1.5,1.3,2.7,3,4.3,4c2.4,1.6,3.8,3.9,4.7,6.6c0.4,1.1-0.4,3.2-1.4,3.1c-2.2-0.1-4.5,1.1-6.7-0.3c-0.9-0.6-2-1.5-2.9,0.2
		c-0.1,0.1-0.5,0.1-0.8,0c-2.3-0.2-4.5-0.1-6.4,1.4c-0.6,0.5-1.1,1.2-1.8,1.6c-0.5,0.3-1.3,0.4-1.7,0.2c-1.3-0.8-2.7-0.5-2.7,1
		c-0.1,2.1-1.2,2-2.7,2c-4.7,0-8.5,3.9-8.5,8.6c0,0.7-0.5,1.5-1,2c-0.9,0.8-2.1,1.3-2.9,2.2c-2.7,2.9-6.1,3.2-9.6,2.7
		c-1.9-0.3-3.1,0.2-3.7,1.9c-0.3,0.7-0.5,1.5-1,2c-1.6,1.6-3.5,2.9-4.9,4.6c-1.5,1.8-3.2,1.8-5.2,1.5c-1-0.1-2-0.1-3-0.4
		c-1.6-0.5-3.5-0.7-4.7-1.8c-1.2-1.1-2.3-1.7-3.9-1.9c-3-0.4-4.5,0.2-5.7,2.9c-1,2.4-1.8,4.8-2.6,7.2c-0.1,0.4-0.2,0.9,0,1.2
		c1.2,2.1,2,4.4,4.2,5.8c1.1,0.7,1.9,2.2,1.1,3.1c-1.2,1.5-2.9,2.5-4.6,3.6c-1.9,1.3-4.2,2.2-5.9,3.8c-1.9,1.7-3.1,4.2-4.9,6
		c-1.3,1.3-3.1,2.6-4.8,2.8c-1.8,0.3-3,0.9-4,2.1c-1.2,1.4-2.5,1.4-4.1,1.2c-1.1-0.1-2.2,0-3.3,0.1c-1.2,0-2.4,0.1-3.6,0.1
		c-1.9,0-3.8-0.1-5.7-0.1c-1.9-0.1-3.7-0.2-5.6-0.3c-0.4,0-1-0.2-1.2,0c-2.1,1.7-4.8,1.6-7.2,2.5c-6.2,2.4-12.5,4.4-17.9,8.5
		c-0.3,0.2-0.8,0.4-1.1,0.3c-1.2-0.2-2.3-0.4-3.4-0.8c-0.5-0.2-1.1-0.8-1.1-1.1c0.4-2.1-0.7-2.4-2.4-2c-0.4,0.1-0.8,0.2-1.2,0.2
		c-2,0-4.2,0.5-6-0.2c-2.8-1.1-5.3-3.1-8-4.5c-1.5-0.7-3.1-1.3-4.7-1.5c-2.2-0.3-4-0.8-4.9-3.1c-0.4-1-1.3-2.1-2.3-2.6
		c-2.3-1-4.7-1.7-7.1-2.5c-2.7-0.9-5.3-1.7-8.2-1.4c-2.9,0.3-5.9,1-8.7,0.5c-6.7-1.2-13.7-2-20-4.9c-2-1-4.1-1.4-6.4-1.2
		c-1.7,0.2-3.4,0-4.5,0c-1-1.7-1.6-3.1-2.4-4.4c-0.9-1.5-2.3-2.8-2.8-4.4c-0.8-2.7-1.1-5.6-1.6-8.4c-0.3-1.6-0.7-2.9-2.5-3.5
		c0.4-1.2,0.8-2.3,1.3-3.6c-0.7,0-1.3-0.1-1.9-0.1c-1.9,0.2-3.4-0.6-4.8-1.8c-1.3-1.2-2.8-2.3-3.7-3.8c-1.3-2.4-3.6-3.6-5.3-5.5
		c-2.6-2.9-6.3-4.1-9.6-3.9c-4.1,0.2-7.1-2.8-11-2.5c-0.6,0-1.3-0.8-2-1.3c-0.2-0.1-0.5-0.2-0.8-0.3c-1.5-0.6-3-1.3-4.5-1.9
		c-0.1-0.1-0.3-0.3-0.3-0.4c-0.1-2.4-2.6-4.6-0.4-7.2c0.8-0.9,1.5-1.9,2.5-2.6c1.4-1,1.7-2.1,1.3-3.8c-0.2-0.7-0.3-1.7,0.1-2.2
		c0.9-1.3,1.5-2.6,1.9-4.2c0.5-1.9-0.1-3.7-0.9-4.8c-1.6-2.2-2.4-4.4-2.3-7.1c0-2.1-0.2-4.3-2.3-5.6c-0.3-0.2-0.2-0.9-0.5-1.2
		c-0.4-0.4-1.1-1.1-1.3-1c-1.2,0.6-1.9-0.4-2.1-1c-0.8-2.1-1.8-3.2-4.1-2.1c-0.1,0.1-0.5-0.1-0.6-0.2c-1.5-1.5-3.6-2.7-4.4-4.5
		c-0.6-1.5-1.1-2.7-2.3-3.7c-1-0.9-1.9-1.8-3-2.8c1.6-1,0.9-1.9-0.1-2.8c-0.2-0.2-0.3-0.6-0.6-0.9c-0.8-0.7-0.6-0.9,0.1-1.7
		c0.6-0.7,0.7-2.2,0.5-3.2c-0.1-0.3-2-0.8-2.6-0.4c-1.3,0.9-2,0.1-3.1-0.4c-1-0.5-2.4-0.7-3.4-0.4s-2.2,1.1-2.1,2.6
		c0.1,3.5-4.1,6.3-7.4,5.2c-1-0.4-2.5-0.8-3.3-0.3c-1.9,1.2-3.5,3.1-3.9,5.4c-0.6,3.3-0.8,6.6-1.2,9.9c-0.2,1.8-1.8,2.9-3.6,2.8
		c-1.3-0.1-2.7,0.4-4.1,0.5c-0.6,0-1.4-0.1-2-0.3c-1.8-0.7-3.5-2-5.3-2.2c-1.9-0.2-3.6-0.6-5-1.8c-1.4-1.3-2.9-2.5-4.4-3.6
		c-0.4-0.3-1.4-0.2-1.7,0.2c-1.2,1.4-2.2,3-3.2,4.5c-2,2.9-4,5.9-5.9,8.8c-1.3,2-2.7,3.9-3.8,6c-0.4,0.7-0.1,1.8,0.1,2.6
		c0.4,1.3,0.9,2.5,1.4,3.7c-0.2,0.1-0.3,0.3-0.5,0.4c-1.8-1.1-4.4-0.7-5.7-2.9c-1-1.6-2.3-1.8-3.9-1.1c-0.6,0.2-1.3,0.3-1.9,0.3
		c-2.2-0.2-4.4-0.6-6.6-0.6c-2.7,0-5.4,0.3-8,0.7c-0.4,0.1-1.1,0.8-1.1,1.2c0,0.5,0.4,1.3,0.9,1.5c1.6,0.7,2.7,2.4,2.1,4
		c-1.5,4.5-2,9-1.4,13.6c0.1,1,0.7,2.3,0.2,3.1c-0.8,1.3-0.7,2.6-0.4,3.7c-1.8,0.5-3.5,0.9-5.5,1.4c0.6,0.9,1,1.4,1.5,2.1
		c-0.7,0.2-1.3,0.5-1.8,0.4c-1.7-0.2-2.3,1.1-2.7,2.2c-0.6,1.5-0.8,3.1-1.1,4.7c-0.3,1.7-1.3,2.5-2.9,2.6c-0.6,0-1.4,0.2-1.8,0.6
		c-1.1,1.1-2.4,1-3.8,1c-0.5,0-1.1-0.1-1.6,0c-3.2,0.8-6.4,1.7-9.6,2.4c-1.3,0.3-2.7,0.2-4,0.3c-0.6,0.1-1.4,0-1.6,0.3
		c-1.4,1.9-4.3,0.4-5.4,2.6c-2.2-0.5-4.4-1.1-6.6-1.6l-0.1-0.1c-0.7-0.2-1.3-0.6-2-0.7c-2.7-0.3-3.7,2.2-4.7,3.7
		c-1.1,1.8-2.4,2.7-4,3.9c-0.4-0.5-0.6-1.1-1-1.2c-1.6-0.3-3.3-0.5-4.9-0.7c-0.4-0.1-0.8-0.1-1.2-0.2c0.1-0.4,0.2-0.8,0.3-1.3
		c0.3-1.4,0.3-2.8-0.6-4c-2.8,1-5.5,2.9-8-1c-0.3,1.1-0.5,1.8-0.6,2.2c-1.5,0.4-2.9,0.6-4.2,1.2c-1.2,0.5-2,0.6-3.3,0.1
		c-0.9-0.4-2.3-0.1-3.4,0.3c-0.6,0.2-1.1,1.1-1.5,1.7c-0.5,0.8-1,1.7-1,2.6c-0.1,1.6-0.9,2.2-2.3,2.2c-0.5,0-0.9-0.1-1.4-0.2
		c-1.4-0.2-3.1,1.3-2.7,2.4c0.6,1.8,1.1,3.6,1.6,5.5c-0.2,0.1-0.4,0.1-0.6,0.1c-2.7,0.3-3.3,1.4-2,3.6c0.2,0.5,0.3,1.1,0.7,1.4
		c0.7,0.7,2,1.8,2.3,1.6c2-1.5,3.5-0.2,5.2,0.7c1.9,1,2.7,3.4,1.6,5.3c-1.4,2.3-0.5,4.8-0.9,7.2c-0.1,0.6-0.1,1.4-0.5,1.8
		c-1,1.1-1.4,2.2-0.4,3.5c0.2,0.3,0.2,0.8,0.4,1.1c0.7,1.4,0,1.8-1.2,1.6c-1.2-0.2-2.4-0.7-3.6-1.1c-1.6-0.6-2.9-0.4-3.2,0.9
		c-0.2,0.7,0.2,1.5,0.3,2.4c2-0.5,2.9,0.4,2.9,2.1c0.3,0.1,0.4,0.1,0.5,0.1c0.1,0,0.2-0.1,0.3-0.1c1.9-0.4,3,1,4.2,1.9
		c0.4,0.3,0.1,1.4,0.2,2.2c0.1,0.5,0.1,1.2,0.4,1.3c0.4,0.2,1-0.1,1.5-0.2c4.1,3.9,3,7.9-0.4,11.6c0.8,1,2.5,1.4,1.7,2.8
		c-0.8,1.6,0.2,1.9,1.2,2.1s2,0.1,2.5,0.2c3.3,6.7,9.1,9.5,15.9,11.3c-1.8,1.3-2.1,2.7-1.9,4.6c0.2,1.8,0.4,3.7,0,5.4
		c-0.4,1.6-0.1,2.6,0.9,3.5c1.7,1.6,4,2.6,5,4.9c0.1,0.3,0.7,0.4,1,0.5c-0.7,1.8-1.8,2.7-3.8,2.6c-0.4,0-1.2,0.9-1.2,1.2
		c0.6,1.9,0.1,3.5-1.1,5c-0.2,0.3-0.4,0.8-0.3,1.1c0.4,1.3,0.8,2.7,1.3,3.9c0.6,1.5,1.2,2.9,0.9,4.6c-0.3,1.7-0.1,3.5,0.1,5.3
		s-2.4,4.7-4.1,4.5c-1.5-0.2-2.4-1.5-2.2-3.3c0.4-2.6,0.2-2.7-2.3-2.1c-0.4,0.1-0.9,0-1.2,0.1c-0.8,0.3-1.5,0.7-1.2,1.9
		c0.2,0.6,0.3,1.7,0,2c-1.9,1.8-0.4,3.4,0.3,5c0.2,0.5,0.7,0.9,1.1,1.4c-1.5,1.1-1.5,2.2-0.8,3.6c0.2,0.4,0.2,1.2-0.1,1.5
		c-1.4,1.6-1.5,2.7-0.5,4.6c0.3,0.5,0.4,1.2,0.5,1.8c0.1,1.2-0.1,2.6,1.4,3.1c0.9,0.4,1.7,2,2.9,0.4c0-0.1,0.3,0,0.3,0
		c1.3,0.9,2.6,1.8,3.9,2.8c0.1,0.1,0.1,0.4,0.1,0.6c0.3,1.2,0.7,2.4,1,3.7c0.4,1.6,1.8,2,2.9,2.9c2.2,1.8,3.9,4.1,6,5.9
		c1.3,1.1,1.8,2.2,1.6,3.8c0,0.4,0.5,1,0.9,1.3c0.5,0.2,1.4,0.4,1.6,0.1c1.2-1.2,2.2-2.6,3.7-4.3c2.1,1,4.5,2.1,6.8,3.2
		c0,0.3,0,0.6,0,0.9c0.1,1.5,0,3.2,1.6,4.1c1.5,0.8,2.5,2,3,3.6c0.6,1.6,1.7,2.7,3.2,3.6c2.3,1.5,4.3,3.4,4.6,6.5
		c0.1,1.1,1.1,2.1,1.4,2.6c2-0.2,3.6-0.6,5.1-0.5c0.7,0,1.7,1,1.8,1.7c0.2,1.4-0.1,2.9-0.2,4.4c0,0.3,0.2,0.7,0.4,0.9
		c1.2,1.1,2.5,2.2,3.7,3.3c0.3,0.2,0.5,0.5,0.6,0.8c1.2,2.1,1.9,2.3,4.1,1.5c0.4-0.1,0.9,0.1,1.4,0.2c-0.1,0.5-0.1,1-0.3,1.4
		c-0.2,0.4-0.5,0.8-0.8,1.1c-0.9,0.9-0.5,1.6,0.3,2.2c1,0.8,2.1,1.7,3.6,1.3c0.4-0.1,0.8,0.3,1.2,0.5c0.5,0.2,0.9,0.4,1.4,0.6
		c0.1-0.1,0.3-0.2,0.4-0.3c0.5,2,1,4,1.6,5.9c0.1,0.4,0.9,0.7,1.5,0.9c0.1,0,0.6-0.7,0.8-1c0.3-0.6,0.6-1.2,0.9-1.8
		c0.1,0.1,0.3,0.2,0.4,0.2c-0.4,1.7,0.2,2.9,2.1,3.5c0.5,0.2,1.5-0.6,2.1-1.2c1-1,2-0.5,2.7,0.2c1.4,1.3,2.5,2.8,3.8,4.1
		c0.3,0.3,0.9,0.5,1.4,0.6c2,0.5,4,1,5.9,1.5c0.7-0.3,1.7-1,2.2-0.7c3.1,1.5,6,0.8,8.9-0.2c1.9-0.7,2.9-0.3,3.2,1.6
		c0.2,1,0,2.2-0.4,3.2c-0.3,0.9-1,1.8-1.5,2.7s0.8,4.4,1.8,4.9s3.2-0.6,3-1.6c-0.5-2.8,0.9-4.5,2.9-6c1-0.7,1.8-1.7,2.8-2.3
		c1.5-0.8,3.3-2,4.7-1.7c1.7,0.4,3.3,1.5,5.1,2.1c1.9,0.7,3.4,2.5,5.7,2.5c0.2,0,0.5,0.3,0.7,0.5c1,0.8,1.9,1.6,3,2.3
		c0.4,0.3,1.2,0.2,1.6,0c2.1-0.9,3-0.9,4.2,1c0.9,1.4,1.1,3,0.5,4.6c-0.5,1.3,0.1,2.3,1.4,2.6c0.6,0.1,1.3,0.2,1.9,0.4
		c2,0.4,2.6,2.2,1.3,3.8c-0.3,0.4-0.6,0.9-0.7,1.3c-0.3,3.9,0.2,4.5,4.1,4.5c0.7,0,1.4,0,2.1-0.1c0.5,0,1.1-0.2,1.5,0
		c3.3,1.8,6.7,2.4,10.4,2.2c2.4-0.1,4.3-0.2,6-2.9c1.6-2.6,4.1-5.8,8.4-5c0.2,0,0.5-0.1,0.7-0.1c2.9-1,5.8-2,8.8-2.8
		c1.3-0.3,2-0.9,2.5-2.1c0.8-1.7,4.2-2.7,6-1.9c1.1,0.5,2.4,1.1,3.5,0.8c2.1-0.6,2.5,0.3,2.4,1.6c1.8,1,3.5,1.7,5,2.7
		c1.4,1,2.9,2.1,4,3.4c0.8,0.9,1.2,0.9,2,0.2c0.4-0.4,1.1-0.8,1.6-0.9c1.6-0.2,2.2-1.1,1.6-2.5c-0.2-0.5-0.3-1.3,0-1.7
		c0.5-0.9,1.4-1.6,2-2.4c0.5-0.6,0.8-1.8,1.4-1.9c1.5-0.3,1.1,1.5,1.8,2.2c0.1,0.1,0.1,0.4,0.2,0.6c0.1-0.1,0.3-0.2,0.4-0.3
		c0.5,0.4,1.1,0.9,1.6,1.3c0.6,0.6,1.2,1.2,1.7,1.8c0.2,0.2,0.4,0.5,0.3,0.7c-0.6,2.8,0.7,5.3,1.1,8c0.2,1.2,1.1,1.5,2,0.7
		c0.3-0.2,0.6-0.5,1-0.7c0.2-0.1,0.4-0.1,0.7,0c0.7,0.4,1.6,0.8,1.4,2.1c-0.2,1.8-0.3,3.7-0.4,5.6c-0.1,2.5,0.1,5.1-0.2,7.6
		c-0.2,1.8-0.8,3.5-1.4,5.3c-0.1,0.4-0.5,0.6-0.9,0.5c-1.1-0.3-1.2,0-0.8,1.7c0.1,0.6,0.4,1.3,0.7,2c0.2,0.5-0.2,1.1-0.8,1
		c-1.5-0.2-2,1.2-2.8,2.3c-0.2,0.2-0.3,0.6-0.5,0.7c-0.4,0.2-1,0.4-1.2,0.2c-1.5-1.1-1.7-0.1-2.2,1.1c-0.6,1.3-1.6,2.7-2.7,3.2
		c-1.8,0.8-3.5,2-3.6,3.9c0,1.3-0.4,2.1-1.5,2.8c-1.8,1-1.1,3.2-2,4.6c1.1,0.7,1.8,1.2,2.1,2.7c0.3,1.6,0.1,2.3-1,3.1
		c-0.4,0.3-0.8,0.7-1,1.1c-0.2,0.4-0.5,1.2-0.2,1.4c0.3,0.3,1,0.5,1.5,0.4c0.7-0.2,1.2-0.8,1.8-1c1.8-0.5,3.7-1.3,5.5-1.2
		c2.5,0,5.1,0.7,7.6,1.1c-0.1,0.2-0.1,0.3-0.2,0.4c-2.5,1.4-2.6,2-0.7,4.1c0.2,0.2,0.2,0.5,0.2,0.8c0.1,1,0,2.1,0.4,2.9
		c0.6,1.3,0.8,2.6,0.3,3.9c-0.1,0.3,0,0.7,0.4,0.9c1.4,0.7,2.6,1.4,4,1.8c0.9,0.3,2,0.2,3,0.4c0.6,0.1,0.6,1.5,0.2,2
		c-1.2,1.3-3.2,2.3-2.3,4.7c0.1,0.3,0,0.9-0.2,1.2c-1,1.5-2,2.9-3.1,4.5c-0.3,0.4-0.1,0.9,0.3,1.1c0.6,0.2,1.2,0.4,1.7,0.6
		c1.1,0.2,2.3,0.1,3.4,0.4c1.5,0.4,2.9,0.9,4.4,1.5c0.3,0.1,0.5,0.5,0.5,0.8c-0.4,1.8-1.3,4,1.3,4.7c0.3,0.1,0.6,0.4,0.5,0.8
		c0,0.6-0.1,1.2,0,1.2c0.8,0.3,1.8,0.2,2.7,0.3c0.5,0,1,0,1.4,0.2c2,1.4,2.7,1.6,4.5-0.2c1.4-1.4,3-1.7,4.8-2.2
		c0.4-0.1,0.9,0.2,0.9,0.6c0.2,1.2,0.4,2.4,0.1,3.3c-0.6,1.5,0.9,2.4,0.7,3.7c0,0.1,1,0.4,1.6,0.5c1.1,0.2,2.3,0.1,3.3,0.6
		c2,0.9,2.1,1.1,3-0.6c0.2-0.3,0.1-0.7-0.2-0.9c-1.1-0.9-1.1-1.7-0.1-3.7c1-2.1,0.4-3.8-0.6-5.6c-0.3-0.6-0.5-1.3-0.8-1.9
		c-0.7-1.9,0-3.5,1-5c0.3-0.5,0.6-1,1.2-1.8c0.5,1.8,1.1,2.3,2.4,1.7c0.5-0.3,1.3-0.2,1.9,0c1.4,0.5,2.4,0.5,3.1-1.1
		c0.4-0.8,1.2-1.5,1.9-2.1c0.3-0.3,1-0.5,1.3-0.4c1.7,0.6,3.4,1.3,4.4,3c1.1,1.8,2.8,1.9,4,0.3c0.6-0.8,1.2-1.7,2-2.7
		c0.3-0.4,1-0.4,1.3,0.1c0.3,0.6,0.5,1.1,0.8,1.7c0.3,0.5,1,0.5,1.3,0c0.3-0.5,0.5-1,0.8-1.5c0.2-0.4,0.8-0.5,1.2-0.1
		c1.1,1.1,2.1,2.1,3.1,3.1c0.4,0.4,1.2,0.2,1.2-0.4c0.1-0.4,0.1-0.8,0.3-1.2c0-0.1,0-0.1,0.1-0.2c0.3-0.5,0.7-1,1.1-1.4
		c0.3-0.3,0.8-0.3,1.1,0.1c0.2,0.2,0.4,0.5,0.6,0.6c0.6,0.3,1.3,0.5,1.8,0.4c0.1,0,0.1,0,0.2-0.1c0.9-0.3,1.5-1,2.3-1.3
		c1.2-0.4,2.5-0.8,3.7-1.2c0.4-0.1,0.6-0.5,0.5-0.9c-0.1-0.5-0.2-0.9-0.3-1.2c-0.1-0.3,0.1-0.7,0.4-0.9c2.1-1,4-2,6-2.8
		c0.2-0.1,0.8,0.1,0.9,0.3c0.9,1.1,1.6,2.3,2.5,3.5c0.2,0.3,0.5,0.6,0.8,0.7c1,0.5,2,0.8,2.9,1.4c0.8,0.6,1.3,0.8,2.3,0.2
		c1-0.6,2.3-0.8,3,0.4c0.8,1.4,1.6,1.4,2.9,0.8c0.6-0.3,1.4-0.4,1.9-0.2c0.1,0,0.1,0,0.2,0.1c0.6,0.3,1.2,0.9,1.8,1.5
		c0.2,0.3,0.3,0.6,0.1,0.9c-0.4,0.6-0.8,1.3-1.4,1.6c-1.6,0.9-1.9,3.1-0.5,4.3c0.3,0.3,0.5,0.9,0.5,1.3c0.1,1.1,0.1,2.1,0.2,3
		c0,0.3,0.3,0.6,0.6,0.7c1.2,0.3,2.2,0.6,3.1,0.9c0.2,0.1,0.4,0.2,0.5,0.5c0.2,0.7,0.7,1.4,1.2,1.7c0.9,0.6,2.2,0.7,3,1.3
		c1.6,1.3,3.3,1.7,5.1,1c1.4-0.5,2.3-0.2,3.5,0.5c0.8,0.5,1.9,0.6,2.9,0.8c0.6,0.1,1.3,0,2.3-0.1c0,0,0.2-0.4,0.4-0.7
		c0.2-0.3,0.5-0.5,0.8-0.8c0.1,0.3,0.1,0.7,0.4,0.9c0.3,0.3,0.8,0.4,1.2,0.5c0.2-0.7,0.6-1.3,0.7-2c0-0.1,0-0.1,0-0.2
		c0-0.7-0.3-1.3-0.6-2.4c0.9,1.3,1.8,2.5,2.6,3.7c0.3,0.5,1,0.4,1.3-0.1c0,0,0,0,0,0c0.2-0.5,1-0.6,1.3-0.1c0.5,0.7,1.3,1,2.1,1.2
		c0.4,0.1,0.7,0.5,0.6,0.9c-0.1,0.5-0.3,1-0.1,1c0.5,0.4,1.3,0.7,2,0.7c0.8,0,1.6-0.4,2.3-0.6c2.4-0.8,2.4-0.8,1.8-3.2
		c0-0.2,0.1-0.4,0.1-0.6c0.6,2,1.8,3.3,3.4,3.8c0.6,0.2,0.7,0.9,0.3,1.3c-0.4,0.3-0.7,0.7-0.9,1.1c-0.5,1-0.6,2.3-0.8,3.4
		c0,0,0,0,0,0c-0.1,1.1-0.3,2.3-0.1,3.4c0.4,2.5,1.9,4.4,4.2,5.5c-0.2,0.4-0.4,0.8-0.7,1.2c-1.1,1.9-2.5,3.3-3.8,4.2
		c-0.1,0.1-0.2,0.2-0.2,0.3l-1.1,2.4c-0.4,0.9-0.5,0.3-1.3,0.1c-2.6-0.3-3.8,0.8-3.5,3.1c-2,1.4-3.9,2.7-5.8,4.1
		c-1.3,1-2.2,2.2-2,4.1c0.3,2.5,0.4,5.1,0.7,7.6c0.1,0.5,0.4,1.2,0.9,1.4c2.2,1,4.3,1.9,6.6,2.8c1.2,0.5,2.6,0.6,3.8,1.1
		c1.4,0.7,2.7,0.5,3.5-0.6c0.9-1.3,2-1.6,3.4-1.6c1.3,0.1,2.1-0.4,2.8-1.7c0.5-0.9,1.4-1.8,2.4-2.1c2-0.7,2.9-1.9,3.3-3.9
		c0.7-3.6,2-7,5.3-9.3c0.7-0.5,1.2-1.7,1.3-2.7c0.2-2.4-0.4-3.1-2.6-4.1c-0.8-0.3-1.3-1.1-2.1-1.3c-0.1,0-0.2,0-0.3,0
		c-0.7,0.1-1.3,0.7-2.1,1.2c3.4-6.7,14.6-26.7,36.7-33.1c4.2-1.2,8.2-1.8,11.9-1.9c0.2,0.1,0.6,0.2,0.9,0.1c1.1-0.3,1.6-1,1.4-1.8
		l1.8-1.3c0.3,0,0.7-0.2,0.8-0.5c0,0,0,0,0,0l2.4-1.7c0.2,0.2,0.4,0.5,0.5,0.7c0.2,0.3,0.7,0.4,1,0.2c0.5-0.3,1-0.6,1.2-1
		c1.6-3.1,2.5-3.4,5.4-1.5c1.4,0.9,2.1,0.6,2.7-1.1c0.2-0.6,0.8-1.2,1.4-1.5c0.2-0.1,0.9,0.4,1.3,0.7c0.2,0.2,0.3,0.6,0.4,0.8
		c1.6-0.7,3.1-1.3,4.5-1.9c1.1-0.5,2.2-1.2,3.4-1.4c1.4-0.3,2.1-0.8,2.3-2.2c0.1-0.5,0.4-1.2,0.8-1.4c2.2-1.2,2.5-3.6,3.4-5.6
		c0.2-0.5,0.8-0.9,1.3-1.1c0.9-0.4,2-0.3,2.8-0.8c1.4-1,2.6-2.2,3.8-3.3c0.2-0.2,0.5-0.3,0.8-0.1c0.3,0.1,0.5,0.3,0.9,0.4
		c0.4-1.3,0.6-2.7,2.4-2.9c0.4,0,0.7-0.9,1-1.3c0.3-0.4,0.5-1,0.8-1.2c1.5-1,2.2-2.1,0.8-3.4c0.5-0.5,1.1-0.9,1.2-1.4
		c0-0.2,0-0.3,0-0.5c-0.1-0.5,0.2-0.9,0.7-0.9h1.8c0.7,0,1.6-0.2,2.1,0.2c1.1,0.8,1.6,0.2,2.1-0.6c0.3-0.6,0.6-1.2,0.9-1.9
		c0.1-0.3,0-0.7-0.2-0.9c-0.3-0.2-0.7-0.5-1.1-0.8c0.2,0,0.5-0.1,1-0.2c10.5-1.6,21.3,12.9,20.9,17.4c-0.1,1.7-0.1,3.5-0.4,5.2
		c0,0.2-0.1,0.7-0.1,1.4c0.1,0.9,0.4,1.6,0.9,2.4c0.9,1.7,1.4,2.6,1.8,3.1c0.8,1.1,2,2.8,4,4.2c1.1,0.7,1.8,1,2.3,2
		c0.3,0.5,0.2,0.6,0.9,2.1c0.7,1.7,1,2.1,1.3,2.3c0.5,0.4,1.4,1,1.9,0.7c0.4-0.2,0.3-0.8,0.2-2.6c-0.2-3-0.3-3.5-0.2-4.3
		c0.1-0.7,0.2-1.5,0.9-3.1c1.3-3,2.6-4.9,3.2-6c2.9-5,0.5-7.9,2.9-16.1c0,0,0.5-1.6,0.9-3.7c0.6-2.9,0.9-4.4,0.5-5.9
		c-0.1-0.5-0.3-1-0.3-1.8c0-0.5,0.1-0.8,0.6-2.4c0.3-1.2,0.4-1.4,0.3-1.6c-0.2-0.5-0.6-0.8-1.6-1.3c-1.3-0.7-1.4-0.5-2.8-1.2
		c-0.6-0.3-0.9-0.5-1.3-0.5c-0.6,0.1-0.9,0.6-1.3,1c-0.7,0.8-1.6,1.4-2.3,2.1c0,0-2,2-5.1,4.9c-1.8,1.7-6.9,2.1-21.6-4l0,0
		c1.4-1.5,0.1-1.8-0.8-2.1c-0.5-0.2-0.7-0.9-0.3-1.2c0.5-0.4,0.9-0.8,1.3-1.2c0.3-0.3,0.7-0.3,1-0.1c0.2,0.2,0.5,0.4,0.7,0.5
		c0.2,0,0.3-0.1,0.5-0.1c-0.1-0.7-0.2-1.4-0.2-2.2c0-0.3,0.2-0.7,0.5-0.8c1-0.4,1.9-1,0.9-2.7c-0.1-0.1,0.3-0.7,0.5-0.9
		c1.1-1.4,1-1.7-0.7-2.4c-0.3-0.1-0.6-0.2-1.5-0.6c1.3-1.1,2.4-2.1,3.5-3.1c0.5-0.4,0.2-1.2-0.4-1.3c-0.9-0.1-1.7-0.2-2.5-0.3
		c0.6-0.4,1-0.7,1.4-1c0.4-0.2,0.4-0.7,0.2-1.1c-0.3-0.4-0.7-0.9-1.1-1.3c-0.3-0.3-0.9-0.5-0.9-0.7c-0.1-0.5,0.1-1.2,0.4-1.4
		c0.3-0.3,1.4-0.3,1.5-0.1c0.3,0.7,0.8,1,1.3,1.1c0.5,0.1,0.8,0.7,0.5,1.1c-0.2,0.3-0.4,0.7-0.7,1c0.1,0.2,0.1,0.3,0.2,0.5
		c0.9-0.4,2-0.5,2.7-1.1c1.4-1.1,0.9-2.3,0.2-3.5c-0.2-0.4-0.1-0.9,0.3-1.1c1-0.5,1.9-1,1.8-2.4c0-0.2,0.4-0.4,0.6-0.6
		c1-0.8,0.6-1.3-0.4-1.7c-0.5-0.2-1-0.4-1.5-0.6c0.1-0.2,0.1-0.3,0.2-0.5c0.6,0.2,1.2,0.6,1.7,0.6c0.7,0,1.7-0.2,2.1-0.7
		c0.7-1,2.2-2.1,1.2-3.5c-1.2-1.7-0.6-3.1,0.4-4.3c0.8-0.9,1.2-1.6,0.8-2.4c-0.2-0.4,0-1,0.5-1c1.2-0.2,1.7-1.4,2.1-2.6
		c0.3-1.1,0.9-2.1,1.4-3.2c0.2,0.1,0.4,0.2,0.7,0.3c-0.3,0.8-0.7,1.7-1,2.5c-0.1,0.4,0,1,0.2,1.2c0.3,0.2,0.9,0.2,1.2,0
		c0.5-0.3,0.8-0.8,1.1-1.3c0.5-0.8,0.6-1.8,1.3-2.4c1.6-1.5,1.9-1.9,0.7-3.6c-0.8-1.3-1.4-2.3,0.4-3.2c0.2-0.1,0.4-0.5,0.5-0.9
		c0.9-2.6,0.3-4-2.2-5c-0.4-0.1-0.6-0.6-0.4-1c0-0.1,0-0.1,0.1-0.2c0.2-0.4,0.6-0.6,1-0.4c0.6,0.3,1.2,0.6,1.7,0.5
		c2.9-0.4,3.5-1.3,2.8-4.5c-0.1-0.6-0.2-1.5-0.6-2c-0.1-0.1-0.2-0.1-0.3-0.2c-0.2-0.1-0.6,0-0.9,0c-0.6,0.1-1.1-0.5-0.8-1.1
		c0.8-1.3,2.8-1.8,3.7-3.3c-0.5-0.2-0.9-0.5-1.2-0.4c-3.3,0.5-5.6-1-7.6-3.5c-1.7-2-3.5-1.9-5.5-0.1c-1,0.8-2,1.6-3.1,2.3
		c-0.3,0.2-1.1-0.2-1.5-0.5c-0.7-0.8-1.3-1.7-2-2.7c0.7,0,1.5-0.2,2.2,0c1.6,0.5,2.6-0.2,2.9-1.6c0.4-1.6,1.5-2.5,2.8-3.3
		c0.8-0.5,1.7-0.9,2.3-1.6c1-1.1,2-1.8,3.7-1.9c2.3-0.1,2.8-1.4,1.7-3.5c-0.1-0.3-0.3-0.5-0.4-0.8c-2-3.9-7.1-4-9.3-7.7
		c0-0.1-0.2,0-0.3-0.1c-1.8-1.1-4.8-0.7-5.2-4c0.4,0.3,0.9,0.5,1.1,0.8c1.3,1.7,2.8,2.3,4.8,1.1c0.4-0.2,0.9-0.3,1.3-0.2
		c1.7,0.5,3.3,1.2,5,1.7c0.6,0.2,1.7,0.2,1.9-0.1c0.3-0.6,0.3-1.5,0.1-2.1c-0.7-1.7-1.8-3-3.7-3.6c-1.6-0.5-3.3-0.9-3.2-3.2
		c0-0.5-0.9-1.2-1.5-1.6c-1-0.5-2.1-0.7-3-1.2c-0.8-0.5-2.1-1.3-2.1-2c0.1-3.1-1-5.6-3.1-7.8c0,0,0-0.1,0-0.2
		c-1.8-4.1-3.8-8-5.3-12.2c-1-2.8-3-4-5.4-4.9c-2.6-1-5.2-2-7.7-3.2c-1.8-0.8-2.5-2.5-1.7-3.8c1.1-2.1,2.1-4.2,3.4-6.2
		c1.8-2.7,3.7-5.4,5.7-8c0.8-1.1,0.8-2-0.1-3c-0.3-0.3-0.6-1.2-0.4-1.4c0.4-0.5,1.1-0.8,2.1-1.4c-0.2,1.4-0.2,2.2-0.4,3.3
		c1.6-0.5,2.9-1,4.2-1.2s1.3-0.8,1.1-1.7c-0.3-1.2-0.6-2.3-0.9-3.7c0.7,0.1,1.1,0.1,1.4,0.3c1.1,0.8,1.5,0.2,1.7-0.8
		c0.4-2.2,1.9-3.3,3.9-4c1.5-0.6,3-1.3,4.2-2.4c1.6-1.4,2.8-1.8,4.9-1.1c1,0.3,2.3,0,3.4-0.3c1-0.3,1.4-1,0.3-1.9
		c-0.8-0.7-1-1.2-0.2-2.2c0.5-0.5,0.4-1.6,0.6-2.3c0.1-0.4,0.5-0.8,0.7-1.2c0.1-0.3,0.2-0.7,0.2-1c-0.4-0.1-0.8-0.3-1.2-0.2
		c-1.7,0.3-3.3,1.1-4.7-0.6c-0.5-0.5-1.6-1.4-2.4-0.3c-1.1,1.5-2.7,1.5-4.2,1.8c-0.5,0.1-1.2-0.6-1.7-0.9s-1.1-1-1.4-0.9
		c-2,0.8-3.2-0.3-4.2-1.6c-1-1.2-2.2-1.4-3.4-0.8s-2.3,1.5-3.3,2.4c-1.4,1.4-2.4,3.2-4,4.2c-1.1,0.7-1.7,1.2-1.7,2.6
		c0,0.6-0.5,1.6-1.1,1.8c-1.2,0.5-2.6,0.9-3.9,0.7c-1.7-0.2-3.6-0.7-4.9-1.7c-1.3-0.9-0.9-4.3,0.2-5.7c0.8-1,0.9-2.1,0.3-3.2
		c-0.6-0.9-1.1-1.9-1.8-2.7c-1.5-1.9-2.1-1.8-3.7-0.1c-0.5,0.5-1.6,1.2-2,1c-1.6-0.8-2.9-1-4,1.3c-2.2-2.9-4.1-5.4-6.1-7.9
		c-0.9-1.2-0.8-2.3-0.3-3.6s1.2-2.5,1.4-3.9c0.2-1.5,1.1-2.2,2.2-2.7c1.1-0.5,2.1,0.1,2.7,1c0.9,1.3,1.8,1.2,3,0.4
		c0.7-0.5,1.6-1,2.5-1.1c3.3-0.3,4.4-0.9,5.5-4c0.3-0.8,0.3-1.6,0.5-2.4c0.7-2.5,1.5-4.8,3.8-6.3c1.9-1.3,3.8-2.4,5.7-3.7
		c0.9-0.6,1.9-1.3,2.4-2.2c1.4-2.3,2.5-4.7,3.7-7.1c1.2-2.4,3.3-3.6,5.9-3.3c2.3,0.3,2.7-0.1,3.7-2.9c0.6,0.6,1.4,1,1.5,1.5
		c0.5,1.9,1.9,3.2,3.1,4.5c0.5,0.6,1.1,1.7,0.8,2.2c-1.5,3.4-2.4,7.2-6.1,9.3c-0.5,0.3-0.9,1.4-0.7,1.8c0.5,1.3,0,1.7-1,2.1
		c-1.2,0.5-1.5,1.5-1.1,2.6c0.4,1.2,1.3,1.7,2.6,1.5c0.8-0.1,1.6-0.3,2.3-0.4c0.5,3.4-0.5,5.1-3.4,6.1c-2.1,0.8-2.5,1.8-1.4,3.8
		c0.9-0.5,1.8-1,2.8-1.4c1.2-0.5,2.2-0.9,2.3-2.5c0-0.3,0.9-0.8,1.2-0.8c2.1,0.4,2.9-0.7,3.7-2.3c0.9-1.8,2.1-3.4,3.4-5
		c0.6-0.8,1.7-1.2,2.5-1.9c3.2-2.8,6.6-5.2,10.9-5.9c2.6-0.4,4.6-1.2,5.9-3.8c0.9-1.8,2.3-3.4,3.7-5c1.5-1.7,3.1-3.4,4.8-5
		c0.6-0.6,1.6-0.9,2.4-1.4c1.9-1.3,2.6-4.3,5.5-4.3c0.2,0,0.4-0.3,0.5-0.5c0.8-1.6,1.5-3.2,2.3-4.8c0.5-1,1.2-1.9,1.9-3.1
		c0.1-0.7,0.2-1.7,0.3-2.7c0.1-1.2,1.9-3.1,3-3.2c0.4,0,0.9,0.4,1.2,0.7c0.7,0.7,1.2,1.8,1.9,2c2,0.5,4,0.7,6,0.8
		c1.1,0,2.2-0.6,3.3-0.5c0.8,0,1.7,0.4,2-0.6c0.3-1.2,1.4-2.6-0.1-3.5c-2-1.1-2.2-3-2.8-4.9c1,0,1.8,0,2.6-0.2s1.6-0.7,2.4-1
		c0.4-0.2,0.9-0.3,1.3-0.3c1.2-0.1,2.5,0.2,3.1-1.3c0.5-1.1,1.2-2.2,1.4-3.4c1-0.8,1.7-1.3,3.9-0.4c0.6-0.8,1.6-1.6,1.7-2.4
		c0.2-1.4-0.2-2.9-0.2-4.3c0-1.2,0.2-2.4,0.4-3.8c1.6,0.6,2.6,1,3.8,1.5c-0.1,3.3,3.1,3.8,4.7,5.7c1.1-1.1,0.3-3.5-2-5.2
		c1.4-0.7,2.6-1.3,3.9-1.8c1.3-0.6,2.5-1.1,1.9-2.9c-0.1-0.4,0.2-1,0.2-1.5c0-1.8,0.5-3.8-0.1-5.4c-1-2.8-1.9-5.6-1.5-8.7
		c0-0.3,0-0.6-0.1-0.9c-1.4-2.9-2.7-5.9-4.4-8.7c-0.8-1.3-0.3-1.5,0.7-2c0.9-0.5,2.1-0.9,2.6-1.8c1.1-1.8,1.9-3.8,2.8-5.7
		c1,0.3,1.8,0.7,2.7,0.8c2.6,0.3,5.2,0.6,7.9,0.6c0.9,0,1.9-0.7,2.7-1.3c0.3-0.2,0.3-1.2,0.1-1.5c-1.4-2.4-0.8-4.5,0.9-6.5
		c0.3-0.4,0.4-1.1,0.5-1.7c0.2-1,0-2.3,0.5-3c1.8-2.1,0.6-4.9,1.9-7.1c0.2-0.3-0.4-0.9-0.6-1.4c-0.2-0.7-0.4-1.4-0.3-2.2
		c0.1-1.2,0.5-2.4,0.5-3.6c-0.1-1.7-0.6-3.3,0.4-4.9c0.2-0.3,0.1-0.9-0.1-1.2c-0.4-0.7-0.6-1.4-0.4-1.9c0.2-0.8,1.1-1,1.7-1.7
		C744.8,85,742.4,82.7,742.8,78.3z"/>
</g>
</svg>
